<svg xmlns="http://www.w3.org/2000/svg" xmlns:xlink="http://www.w3.org/1999/xlink" fill="#000000" version="1.1" enable-background="new 0 0 50.4 50.4" xml:space="preserve" width="50" height="32" style=""><rect id="backgroundrect" width="100%" height="100%" x="0" y="0" fill="none" stroke="none"/><g class="currentLayer" style=""><title>Layer 1</title><g id="svg_1" class=""><path d="M26.088999702453613,18.10901634979248 c0,-2.291 1.092,-4.597 3.475,-5.774 c-0.06100000000000001,-0.0010000000000000002 -0.11800000000000002,-0.008000000000000002 -0.17900000000000002,-0.008000000000000002 h-9.331 c-4.245,0 -6.49,2.862 -6.49,5.782 v13.69 h3.965 v-13.41 h1.911 l0.004000000000000001,13.41 h6.644 V18.10901634979248 z" id="svg_2"/><path d="M12.238999702453613,18.10901634979248 c0,-2.291 1.09,-4.597 3.474,-5.774 c-0.06100000000000001,-0.0010000000000000002 -0.11800000000000002,-0.008000000000000002 -0.17900000000000002,-0.008000000000000002 H6.489999702453614 c-4.245,0 -6.49,2.862 -6.49,5.782 v13.69 h3.966 v-13.41 h1.9100000000000001 l0.006000000000000002,13.41 h6.357 V18.10901634979248 z" id="svg_3"/><rect x="26.37352915394173" y="3.9700188502582936" transform="matrix(0.7071,-0.7071,0.7071,0.7071,-2.5442,21.3866) " width="7.8420000076293945" height="7.841000080108643" id="svg_4"/><polygon points="32.41800022125244,1.8210163116455078 38.640000343322754,11.136015892028809 44.86299991607666,1.8210163116455078 " id="svg_5"/></g><g id="svg_6" class=""><path d="M43.806999702453616,12.32701634979248 h-9.902 c-4.247,0 -6.491,2.862 -6.491,5.782 v13.69 h3.966 v-13.41 h1.911 l0.005000000000000001,13.41 h11.178 l-0.0020000000000000005,-13.41 h1.862 v13.41 h3.964 v-13.69 C50.29699970245361,15.189016349792482 48.05299970245361,12.32701634979248 43.806999702453616,12.32701634979248 z" id="svg_7"/><circle cx="10.892999649047852" cy="5.551016807556152" r="4.64900016784668" id="svg_8"/></g></g></svg>