<svg xmlns="http://www.w3.org/2000/svg" xmlns:xlink="http://www.w3.org/1999/xlink" width="50" height="33" fill="#000000" version="1.1" enable-background="new 0 0 50.4 50.4" xml:space="preserve"><rect id="backgroundrect" width="100%" height="100%" x="0" y="0" fill="none" stroke="none"/><g class="currentLayer" style=""><title>Layer 1</title><g id="svg_1" class=""><path d="M12.317,18.832999614715575 c0,-2.306 1.098,-4.627 3.497,-5.812 c-0.06100000000000001,-0.0010000000000000002 -9.281,-0.007000000000000002 -9.281,-0.007000000000000002 C2.26,13.013999614715576 0,15.892999614715578 0,18.832999614715575 v13.697000000000001 h3.991 V19.116999614715578 h1.923 l0.004000000000000001,13.447 h6.398 V18.832999614715575 z" id="svg_2"/><path d="M24.208,12.449999614715576 l-6.225,-6.225 l6.225,-6.225 l6.224,6.225 L24.208,12.449999614715576 L24.208,12.449999614715576 zM20.082,6.224999614715577 l4.125,4.125 l4.125,-4.125 l-4.125,-4.125 L20.082,6.224999614715577 L20.082,6.224999614715577 z" id="svg_3"/><polygon points="31.905000686645508,2.438999652862549 38.16899871826172,11.813998699188232 44.43199920654297,2.438999652862549 " id="svg_4"/><path d="M20.31,12.532999614715575 c-4.465,0 -6.8,3.088 -6.8,6.139 v13.858 h12.743 V18.671999614715578 c0,-3.213 1.836,-4.7490000000000006 1.9100000000000001,-4.809 l1.6620000000000001,-1.322 L20.31,12.532999614715575 zM24.767,18.671999614715578 v12.491 l-5.134,-0.011000000000000003 V18.892999614715578 h-1.96 V31.148999614715578 l-2.68,-0.004000000000000001 V18.671999614715578 c0,-2.243 1.6640000000000001,-4.655 5.315,-4.655 l5.79,0.005000000000000001 C25.45,15.005999614715577 24.767,16.546999614715578 24.767,18.671999614715578 z" id="svg_5"/></g><g id="svg_6" class=""><path d="M43.801,13.013999614715576 h-9.966 c-4.273,0 -6.534,2.879 -6.534,5.819 v13.697000000000001 h3.991 V19.116999614715578 h1.923 l0.005000000000000001,13.413 h11.252 L44.47,19.116999614715578 h1.871 l0.003000000000000001,13.416 h3.989 l-0.0010000000000000002,-13.7 C50.332,15.892999614715578 48.071,13.013999614715576 43.801,13.013999614715576 z" id="svg_7"/><circle cx="10.963000297546387" cy="6.193999767303467" r="4.677999973297119" id="svg_8"/></g></g></svg>