<svg xmlns="http://www.w3.org/2000/svg" xmlns:xlink="http://www.w3.org/1999/xlink" width="84" height="86" fill="#000000" version="1.1" enable-background="new 0 0 100 100" xml:space="preserve" style=""><rect id="backgroundrect" width="100%" height="100%" x="0" y="0" fill="none" stroke="none"/><g class="currentLayer" style=""><title>Layer 1</title><path d="M55.7418671798706,1.8619998054504396 c5.265,0 10.491,2.232 14.152,6.568 c6.596,7.812 5.613,19.491 -2.198,26.088 c-3.476,2.934 -7.718,4.369 -11.937,4.369 c-5.264,0 -10.49,-2.232 -14.151,-6.568 c-6.6,-7.812 -5.612,-19.492 2.199,-26.088 C47.2818671798706,3.295999805450439 51.524867179870604,1.8619998054504396 55.7418671798706,1.8619998054504396 M55.743867179870605,-1.9454956046160987e-7 L55.743867179870605,-1.9454956046160987e-7 c-4.8,0 -9.465,1.7080000000000002 -13.137,4.807 c-4.159,3.513 -6.7,8.433 -7.158,13.855 c-0.458,5.423 1.225,10.7 4.737,14.857 c3.8770000000000002,4.594 9.555,7.229 15.572,7.229 c4.799,0 9.466,-1.707 13.139,-4.808 c8.581,-7.248 9.666,-20.127 2.419,-28.712 C67.4368671798706,2.6349998054504393 61.761867179870606,-1.9454956046160987e-7 55.743867179870605,-1.9454956046160987e-7 L55.743867179870605,-1.9454956046160987e-7 z" id="svg_1" class=""/><circle cx="63.89086437225342" cy="65.49099779129028" r="16.80299949645996" id="svg_2" class=""/><path d="M63.8798671798706,46.97799980545044 c5.264,0 10.491,2.231 14.151,6.567 c6.597,7.814 5.614,19.492 -2.197,26.09 c-3.475,2.935 -7.718,4.368 -11.937,4.368 c-5.264,0 -10.489,-2.232 -14.15,-6.569 c-6.599,-7.811 -5.613,-19.49 2.199,-26.089 C55.420867179870605,48.41199980545044 59.66186717987061,46.97799980545044 63.8798671798706,46.97799980545044 M63.880867179870606,45.11599980545044 L63.880867179870606,45.11599980545044 c-4.798,0 -9.464,1.7080000000000002 -13.135,4.806 c-4.159,3.5140000000000002 -6.702,8.434 -7.158,13.857 c-0.457,5.423 1.225,10.699 4.737,14.855 c3.8770000000000002,4.594 9.554,7.229 15.572,7.229 c4.8,0 9.465,-1.707 13.138,-4.808 c8.58,-7.248 9.666,-20.128 2.417,-28.711 C75.57486717987061,47.75199980545044 69.8978671798706,45.11599980545044 63.880867179870606,45.11599980545044 L63.880867179870606,45.11599980545044 z" id="svg_3" class=""/><path d="M8.288867179870607,37.87199980545044 c-0.21800000000000003,0.22500000000000003 -0.41800000000000004,0.466 -0.6240000000000001,0.7040000000000001 l21.394,25.332 c0.268,-0.16200000000000003 0.539,-0.31900000000000006 0.796,-0.49800000000000005 c0.258,-0.17500000000000002 0.49800000000000005,-0.36700000000000005 0.7470000000000001,-0.558 l-21.636,-25.62 C8.738867179870606,37.44299980545044 8.506867179870607,37.64799980545044 8.288867179870607,37.87199980545044 z" id="svg_4" class=""/><path d="M6.144867179870605,40.62399980545044 c-0.17400000000000002,0.278 -0.3420000000000001,0.561 -0.49900000000000005,0.8480000000000001 l20.216,23.946 c0.31200000000000006,-0.11000000000000001 0.6180000000000001,-0.22800000000000004 0.92,-0.35400000000000004 c0.29900000000000004,-0.12200000000000001 0.5900000000000001,-0.26 0.8820000000000001,-0.3990000000000001 L6.687867179870606,39.82099980545044 C6.500867179870605,40.08599980545044 6.316867179870606,40.34999980545044 6.144867179870605,40.62399980545044 z" id="svg_5" class=""/><path d="M4.5288671798706055,43.99999980545044 c-0.12000000000000001,0.3450000000000001 -0.23600000000000002,0.6890000000000002 -0.3340000000000001,1.046 l17.905,21.203 c0.36600000000000005,-0.038000000000000006 0.7240000000000001,-0.09500000000000003 1.084,-0.15500000000000003 c0.35300000000000004,-0.06200000000000001 0.7020000000000001,-0.12200000000000001 1.047,-0.203 L4.9038671798706055,43.00199980545044 C4.764867179870606,43.32699980545044 4.648867179870605,43.66399980545044 4.5288671798706055,43.99999980545044 z" id="svg_6" class=""/><path d="M3.630867179870606,48.12899980545044 c-0.0020000000000000005,0.031000000000000007 0.0010000000000000002,0.06300000000000001 -0.0020000000000000005,0.09400000000000003 c-0.037000000000000005,0.468 -0.04800000000000001,0.928 -0.04700000000000001,1.389 L17.496867179870605,66.08799980545044 c0.451,0.07900000000000001 0.909,0.14500000000000002 1.375,0.18800000000000003 c0.031000000000000007,0.0020000000000000005 0.06100000000000001,0.009000000000000003 0.09100000000000003,0.012000000000000002 c0.3950000000000001,0.03200000000000001 0.782,0.031000000000000007 1.171,0.03900000000000001 L3.7888671798706053,46.96999980545044 C3.7278671798706053,47.35399980545044 3.665867179870606,47.73499980545044 3.630867179870606,48.12899980545044 z" id="svg_7" class=""/><path d="M4.263867179870605,54.26099980545044 c0.272,0.933 0.6250000000000001,1.8290000000000002 1.048,2.6870000000000003 l5.236,6.203 c0.778,0.561 1.6030000000000002,1.059 2.472,1.483 c0.6040000000000001,0.29500000000000004 1.229,0.55 1.8730000000000002,0.773 L3.8158671798706063,52.29299980545044 C3.9278671798706064,52.96199980545044 4.074867179870605,53.62099980545044 4.263867179870605,54.26099980545044 z" id="svg_8" class=""/><path d="M21.877867179870606,32.80799980545044 c-0.030000000000000006,-0.0020000000000000005 -0.05800000000000001,-0.009000000000000003 -0.09000000000000002,-0.012000000000000002 c-0.39300000000000007,-0.03200000000000001 -0.781,-0.03200000000000001 -1.17,-0.03900000000000001 l16.345,19.356 c0.06100000000000001,-0.38400000000000006 0.12300000000000001,-0.77 0.15900000000000003,-1.1600000000000001 c0.0010000000000000002,-0.031000000000000007 0,-0.06000000000000001 0.0010000000000000002,-0.09200000000000003 c0.037000000000000005,-0.468 0.05000000000000001,-0.927 0.04700000000000001,-1.389 L23.253867179870607,32.99499980545044 C22.801867179870605,32.91599980545044 22.345867179870606,32.85099980545044 21.877867179870606,32.80799980545044 z" id="svg_9" class=""/><path d="M27.728867179870605,34.44699980545044 c-0.6020000000000001,-0.29400000000000004 -1.229,-0.55 -1.8690000000000002,-0.773 l11.077,13.118 c-0.11000000000000001,-0.6700000000000002 -0.259,-1.3290000000000002 -0.44700000000000006,-1.9729999999999999 c-0.273,-0.93 -0.6250000000000001,-1.8250000000000002 -1.048,-2.6830000000000003 l-5.241,-6.207 C29.423867179870605,35.36799980545044 28.600867179870605,34.87099980545044 27.728867179870605,34.44699980545044 z" id="svg_10" class=""/><path d="M17.565867179870605,32.98999980545044 c-0.35200000000000004,0.06000000000000001 -0.7040000000000001,0.12000000000000001 -1.049,0.202 l19.332,22.89 c0.137,-0.32700000000000007 0.256,-0.6640000000000001 0.37400000000000005,-1.002 c0.11900000000000002,-0.3450000000000001 0.23800000000000002,-0.6880000000000002 0.3370000000000001,-1.043 L18.653867179870605,32.83299980545044 C18.286867179870605,32.87099980545044 17.926867179870605,32.92899980545044 17.565867179870605,32.98999980545044 z" id="svg_11" class=""/><path d="M13.965867179870607,34.01799980545044 c-0.29600000000000004,0.12400000000000001 -0.5890000000000001,0.26 -0.8780000000000001,0.4 l20.978,24.841 c0.18800000000000003,-0.263 0.37000000000000005,-0.527 0.542,-0.801 c0.17500000000000002,-0.279 0.3420000000000001,-0.561 0.49900000000000005,-0.8500000000000001 L14.888867179870605,33.66499980545044 C14.576867179870604,33.77399980545044 14.268867179870604,33.89199980545044 13.965867179870607,34.01799980545044 z" id="svg_12" class=""/><path d="M10.894867179870605,35.67099980545044 c-0.255,0.17600000000000002 -0.49900000000000005,0.37100000000000005 -0.7450000000000001,0.561 L31.786867179870605,61.85299980545044 c0.22900000000000004,-0.21400000000000002 0.46,-0.41900000000000004 0.6760000000000002,-0.6440000000000001 c0.21800000000000003,-0.22600000000000003 0.41900000000000004,-0.466 0.6250000000000001,-0.7030000000000001 L11.694867179870606,35.17299980545044 C11.424867179870606,35.33599980545044 11.155867179870604,35.49499980545044 10.894867179870605,35.67099980545044 z" id="svg_13" class=""/><path d="M20.366867179870606,31.02899980545044 c5.264,0 10.493,2.232 14.154,6.568 c6.595,7.812 5.612,19.49 -2.199,26.088 c-3.476,2.935 -7.718,4.37 -11.937,4.37 c-5.264,0 -10.491,-2.233 -14.152,-6.57 C-0.3661328201293941,53.67399980545044 0.620867179870606,41.99399980545044 8.432867179870605,35.39599980545044 C11.906867179870606,32.46299980545044 16.148867179870606,31.02899980545044 20.366867179870606,31.02899980545044 M20.367867179870604,29.166999805450438 L20.367867179870604,29.166999805450438 c-4.799,0 -9.465,1.7080000000000002 -13.137,4.808 c-4.158,3.513 -6.7,8.432 -7.157,13.855 c-0.458,5.423 1.225,10.7 4.737,14.856 c3.8770000000000002,4.595 9.555,7.229 15.573,7.229 c4.799,0 9.465,-1.7080000000000002 13.137,-4.808 c8.583,-7.248 9.668,-20.128 2.42,-28.712 C32.06286717987061,31.801999805450443 26.38586717987061,29.166999805450438 20.367867179870604,29.166999805450438 L20.367867179870604,29.166999805450438 z" id="svg_14" class=""/><path d="M43.27986717987061,9.00599980545044 c0.10500000000000001,-0.11900000000000002 0.21000000000000002,-0.23800000000000002 0.32400000000000007,-0.35200000000000004 c0.08200000000000002,-0.08700000000000002 0.17,-0.17200000000000001 0.258,-0.256 l21.7,25.698 c-0.09600000000000003,0.07400000000000001 -0.19300000000000003,0.14500000000000002 -0.29300000000000004,0.21400000000000002 c-0.132,0.09000000000000002 -0.267,0.17400000000000002 -0.401,0.258 L43.27986717987061,9.00599980545044 z" id="svg_15" class=""/><path d="M41.127867179870606,11.945999805450441 c0.10400000000000001,-0.17800000000000002 0.21300000000000002,-0.35300000000000004 0.32000000000000006,-0.527 c0.04700000000000001,-0.07500000000000001 0.09400000000000003,-0.14800000000000002 0.14200000000000002,-0.22100000000000003 l20.833,24.67 c-0.07800000000000001,0.036000000000000004 -0.15800000000000003,0.07 -0.24000000000000002,0.10300000000000001 c-0.19000000000000003,0.07900000000000001 -0.38100000000000006,0.15500000000000003 -0.5750000000000001,0.22700000000000004 L41.127867179870606,11.945999805450441 z" id="svg_16" class=""/><path d="M39.5678671798706,15.58399980545044 c0.07900000000000001,-0.261 0.16700000000000004,-0.517 0.258,-0.775 c0.018000000000000002,-0.05200000000000001 0.035,-0.101 0.05200000000000001,-0.15300000000000002 l18.85,22.319 c-0.05400000000000001,0.009000000000000003 -0.10700000000000001,0.018000000000000002 -0.16000000000000003,0.025000000000000005 c-0.268,0.04600000000000001 -0.537,0.08900000000000002 -0.808,0.125 L39.5678671798706,15.58399980545044 z" id="svg_17" class=""/><path d="M54.231867179870605,37.18499980545044 c-0.3990000000000001,-0.036000000000000004 -0.793,-0.09000000000000002 -1.185,-0.15500000000000003 L38.87386717987061,20.245999805450438 c0.0010000000000000002,-0.3950000000000001 0.015000000000000003,-0.794 0.04600000000000001,-1.196 l0.003000000000000001,-0.04200000000000001 l15.353,18.183 L54.231867179870605,37.18499980545044 z" id="svg_18" class=""/><path d="M48.1718671798706,35.447999805450436 c-0.772,-0.39000000000000007 -1.5270000000000001,-0.8460000000000001 -2.243,-1.36 l-5.346,-6.33 c-0.38700000000000007,-0.791 -0.7100000000000001,-1.609 -0.9680000000000001,-2.438 L48.1718671798706,35.447999805450436 z" id="svg_19" class=""/><path d="M57.210867179870604,3.5579998054504394 c0.46,0.04600000000000001 0.8540000000000001,0.09900000000000003 1.232,0.16200000000000003 L72.61686717987061,20.50499980545044 c-0.0020000000000000005,0.3970000000000001 -0.016000000000000004,0.794 -0.04700000000000001,1.197 l-0.0020000000000000005,0.04200000000000001 L57.210867179870604,3.5579998054504394 z" id="svg_20" class=""/><path d="M63.3178671798706,5.30299980545044 c0.773,0.38800000000000007 1.528,0.8460000000000001 2.242,1.358 l5.351,6.335 c0.38200000000000006,0.791 0.7060000000000001,1.609 0.9630000000000001,2.4370000000000003 L63.3178671798706,5.30299980545044 z" id="svg_21" class=""/><path d="M52.76086717987061,3.7759998054504393 c0.05400000000000001,-0.009000000000000003 0.10600000000000001,-0.018000000000000002 0.16100000000000003,-0.026000000000000006 c0.27,-0.04700000000000001 0.536,-0.09100000000000003 0.807,-0.125 l18.192,21.541 c-0.07800000000000001,0.261 -0.16700000000000004,0.517 -0.256,0.775 c-0.020000000000000004,0.05200000000000001 -0.037000000000000005,0.10200000000000001 -0.05500000000000001,0.15300000000000002 L52.76086717987061,3.7759998054504393 z" id="svg_22" class=""/><path d="M49.063867179870606,4.88399980545044 c0.08000000000000002,-0.035 0.16000000000000003,-0.07 0.24200000000000002,-0.10300000000000001 c0.18800000000000003,-0.08000000000000002 0.38300000000000006,-0.15600000000000003 0.5750000000000001,-0.22800000000000004 l20.48,24.253 c-0.10400000000000001,0.17800000000000002 -0.21200000000000002,0.35400000000000004 -0.32200000000000006,0.528 c-0.04500000000000001,0.07300000000000001 -0.09300000000000003,0.14800000000000002 -0.14200000000000002,0.22200000000000003 L49.063867179870606,4.88399980545044 z" id="svg_23" class=""/><path d="M45.926867179870605,6.654999805450439 c0.09800000000000003,-0.07400000000000001 0.19400000000000003,-0.14500000000000002 0.29400000000000004,-0.21400000000000002 c0.132,-0.09000000000000002 0.266,-0.17400000000000002 0.402,-0.258 L68.2098671798706,31.743999805450443 c-0.10400000000000001,0.12100000000000001 -0.21500000000000002,0.23900000000000002 -0.32200000000000006,0.35400000000000004 c-0.08600000000000002,0.08800000000000002 -0.17200000000000001,0.17200000000000001 -0.26,0.254 L45.926867179870605,6.654999805450439 z" id="svg_24" class=""/></g></svg>