<svg xmlns="http://www.w3.org/2000/svg" xmlns:xlink="http://www.w3.org/1999/xlink" width="32" height="17" fill="#000000" version="1.1" style="" xml:space="preserve"><rect id="backgroundrect" width="100%" height="100%" x="0" y="0" fill="none" stroke="none" class="" style=""/><g class="currentLayer" style=""><title>Layer 1</title><g id="svg_1" class=""><path d="M17,12 h-3 c-0.552,0 -1,-0.44700000000000006 -1,-1 s0.44800000000000006,-1 1,-1 h3 c2.206,0 4,-1.794 4,-4 s-1.794,-4 -4,-4 H6 c-2.206,0 -4,1.794 -4,4 s1.794,4 4,4 c0.552,0 1,0.44700000000000006 1,1 s-0.44800000000000006,1 -1,1 c-3.309,0 -6,-2.6910000000000003 -6,-6 s2.6910000000000003,-6 6,-6 h11 c3.309,0 6,2.6910000000000003 6,6 S20.309,12 17,12 z" id="svg_2"/><path d="M26,17 H15 c-3.309,0 -6,-2.6910000000000003 -6,-6 s2.6910000000000003,-6 6,-6 h3 c0.553,0 1,0.44800000000000006 1,1 s-0.44700000000000006,1 -1,1 h-3 c-2.206,0 -4,1.794 -4,4 c0,2.206 1.794,4 4,4 h11 c2.206,0 4,-1.794 4,-4 c0,-2.206 -1.794,-4 -4,-4 c-0.553,0 -1,-0.44800000000000006 -1,-1 s0.44700000000000006,-1 1,-1 c3.309,0 6,2.6910000000000003 6,6 S29.309,17 26,17 z" id="svg_3"/></g></g></svg>